<svg width="1058" height="762" viewBox="0 0 1058 762" fill="none" xmlns="http://www.w3.org/2000/svg">
<mask id="mask0_220_73" style="mask-type:luminance" maskUnits="userSpaceOnUse" x="0" y="0" width="1058" height="762">
<path d="M1057.66 0H0V761.922H1057.66V0Z" fill="white"/>
</mask>
<g mask="url(#mask0_220_73)">
<path d="M1067.33 -3.50439H-5.28125V765.695H1067.33V-3.50439Z" fill="#E7F3F6"/>
<path fill-rule="evenodd" clip-rule="evenodd" d="M508.728 341.712C508.728 341.712 543.682 301.094 559.35 293.748C575.004 286.385 563.805 305.365 553.853 316.949C543.901 328.533 530.742 359.894 524.217 361.59C517.679 363.285 508.728 341.712 508.728 341.712Z" fill="#51A66D"/>
<path fill-rule="evenodd" clip-rule="evenodd" d="M463.547 428.765C463.547 428.765 465.384 440.565 459.53 459.91C453.691 479.272 445.782 499.548 455.103 516.982C455.103 516.982 457.982 515.902 457.296 502.107C456.611 488.33 461.518 483.211 465.726 470.613C469.935 457.999 472.471 437.058 471.374 432.156L463.547 428.765Z" fill="#175F39"/>
<path fill-rule="evenodd" clip-rule="evenodd" d="M438.612 412.595C438.612 412.595 433.568 436.809 431.608 446.615C429.634 456.42 419.463 456.453 413.171 461.955C406.893 467.439 409.251 473.555 413.267 473.057C417.297 472.575 425.823 467.938 432.924 462.57C440.038 457.202 439.97 452.315 441.628 443.324C443.287 434.349 444.164 424.461 444.219 419.957C444.219 419.957 438.818 412.528 438.612 412.595Z" fill="#175F39"/>
<path fill-rule="evenodd" clip-rule="evenodd" d="M426.249 409.071C426.249 409.071 457.749 451.949 570.658 442.742C683.568 433.535 697.591 428.482 705.226 401.426L527.123 353.544C527.123 353.544 448.263 354.293 426.249 409.071Z" fill="#68D873"/>
<path fill-rule="evenodd" clip-rule="evenodd" d="M513.319 334.067C513.319 334.067 514.937 365.893 524.546 383.809C534.141 401.742 585.12 421.253 620.02 422.965C654.905 424.66 733.217 397.055 723.649 373.521C714.068 349.971 644.446 357.832 624.063 351.683C603.666 345.55 511.4 334.433 513.319 334.067Z" fill="#84D5AA"/>
<path fill-rule="evenodd" clip-rule="evenodd" d="M422.123 314.688C422.123 314.688 454.267 293.964 508.234 329.363C508.234 329.363 532.113 346.249 516.047 378.441C499.996 410.616 473.293 414.506 456.446 408.871C439.613 403.221 418.572 403.886 415.982 386.552C413.377 369.201 422.123 314.688 422.123 314.688Z" fill="#51A66D"/>
<path fill-rule="evenodd" clip-rule="evenodd" d="M395.667 426.838C395.667 426.838 399.189 452.532 393.131 460.393C387.072 468.237 381.465 468.786 377.12 476.199C372.775 483.611 378.203 491.04 383.604 484.957C389.018 478.874 400.204 468.503 402.082 464.032C403.973 459.562 407.263 435.347 406.427 428.151C405.591 420.955 396.791 424.062 395.667 426.838Z" fill="#175F39"/>
<path fill-rule="evenodd" clip-rule="evenodd" d="M435.295 326.338C435.295 326.338 411.636 287.98 383.851 328.598C356.052 369.2 360.369 381.149 361.864 409.569C363.371 437.972 396.119 441.396 415.433 422.682C434.733 403.952 455.967 387.631 455.72 368.435C455.473 349.24 435.295 326.338 435.295 326.338Z" fill="#91D4B0"/>
<path fill-rule="evenodd" clip-rule="evenodd" d="M507.836 416.019C507.836 416.019 581.569 306.96 601.775 301.476C621.966 295.991 608.011 320.023 586.326 345.717C564.641 371.428 518.46 442.062 517.761 440.018C517.062 437.973 499.817 445.818 507.836 416.019Z" fill="#4A946D"/>
<path fill-rule="evenodd" clip-rule="evenodd" d="M599.814 318.112C599.814 318.112 613.947 458.415 624.063 474.07C634.165 489.743 660.58 501.775 660.58 501.775C660.58 501.775 666.762 499.25 647.243 485.173C627.723 471.096 626.311 468.719 626.311 468.719C626.311 468.719 615.235 306.479 613.727 303.836C612.206 301.177 599.814 318.112 599.814 318.112Z" fill="#175F39"/>
<path fill-rule="evenodd" clip-rule="evenodd" d="M581.378 478.525C581.378 478.525 601.651 495.743 603.968 490.292C606.285 484.841 592.289 480.52 591.357 474.404C590.425 468.288 566.121 295.343 566.121 295.343C566.121 295.343 554.812 298.019 556.265 306.928C557.732 315.852 581.378 478.525 581.378 478.525Z" fill="#175F39"/>
<path fill-rule="evenodd" clip-rule="evenodd" d="M483.203 432.321C483.203 432.321 485.136 445.867 494.43 452.714C503.738 459.561 510.811 462.918 513.936 474.835C517.062 486.751 522.791 509.57 522.791 509.57C522.791 509.57 537.061 524.577 539.405 520.638C541.762 516.7 532.03 508.008 528.603 502.889C525.176 497.787 521.832 466.525 519.447 460.492C517.062 454.443 500.955 446.981 497.144 439.884C493.334 432.771 481.531 428.316 483.203 432.321Z" fill="#175F39"/>
<path d="M404.083 323.596C404.083 323.596 401.753 287.715 446.495 240.997" stroke="#175F39" stroke-width="4.19709" stroke-miterlimit="5.23256" stroke-linecap="round" stroke-linejoin="round"/>
<path d="M392.898 330.394C392.898 330.394 368.293 243.689 333.996 243.573" stroke="#175F39" stroke-width="4.19709" stroke-miterlimit="5.23256" stroke-linecap="round" stroke-linejoin="round"/>
</g>
</svg>
