<svg width="1072" height="774" viewBox="0 0 1072 774" fill="none" xmlns="http://www.w3.org/2000/svg">
<mask id="mask0_220_136" style="mask-type:luminance" maskUnits="userSpaceOnUse" x="0" y="-1" width="1072" height="775">
<path d="M1071.37 -0.00488281H0.00366211V773.69H1071.37V-0.00488281Z" fill="white"/>
</mask>
<g mask="url(#mask0_220_136)">
<path d="M1074 -2.39307H-11.9802V778.344H1074V-2.39307Z" fill="#E0F3E9"/>
<mask id="mask1_220_136" style="mask-type:luminance" maskUnits="userSpaceOnUse" x="12" y="180" width="993" height="364">
<path d="M1004.72 180H12V543.447H1004.72V180Z" fill="white"/>
</mask>
<g mask="url(#mask1_220_136)">
<path d="M495.702 542.719H271.58V256.888C271.58 219.69 301.829 189.426 339.009 189.426H428.272C465.453 189.426 495.702 219.69 495.702 256.888V542.719Z" fill="#E6E6E6"/>
<path d="M419.113 253.74H349.143C343.526 253.74 338.956 249.168 338.956 243.547V224.823C338.956 219.202 343.526 214.63 349.143 214.63H419.113C424.729 214.63 429.3 219.202 429.3 224.823V243.547C429.3 249.168 424.729 253.74 419.113 253.74Z" fill="white"/>
<path d="M385.812 335.001L385.812 195.074H384.944L384.944 335.001H385.812Z" fill="#E6E6E6"/>
<path d="M469.432 489.703H451.607C446.463 489.703 442.278 485.516 442.278 480.368V426.033C442.278 420.885 446.463 416.698 451.607 416.698H469.432C474.577 416.698 478.762 420.885 478.762 426.033V480.368C478.762 485.516 474.577 489.703 469.432 489.703Z" fill="white"/>
<path d="M353.028 527.944H303.93C298.785 527.944 294.6 523.756 294.6 518.609V422.556C294.6 417.409 298.785 413.221 303.93 413.221H353.028C358.173 413.221 362.358 417.409 362.358 422.556V518.609C362.358 523.756 358.173 527.944 353.028 527.944Z" fill="white"/>
<path d="M363.559 420.609H293.445C290.807 420.609 288.575 418.986 287.762 416.475C286.948 413.964 287.803 411.341 289.939 409.79L325.372 384.1C327.491 382.565 330.33 382.579 332.433 384.138L367.114 409.828C369.224 411.39 370.055 414.011 369.234 416.504C368.411 418.998 366.184 420.609 363.559 420.609Z" fill="#CCCCCC"/>
<path d="M476.735 421.478H444.351C441.712 421.478 439.482 419.855 438.667 417.344C437.853 414.833 438.708 412.208 440.845 410.659L457.211 398.794C459.33 397.257 462.169 397.272 464.271 398.831L480.29 410.697C482.4 412.258 483.232 414.879 482.409 417.372C481.587 419.866 479.36 421.478 476.735 421.478Z" fill="#CCCCCC"/>
<path d="M462.29 370.635H442.245C437.712 370.635 434.025 366.946 434.025 362.411V305.855C434.025 301.32 437.712 297.629 442.245 297.629H462.29C466.822 297.629 470.51 301.32 470.51 305.855V362.411C470.51 366.946 466.822 370.635 462.29 370.635Z" fill="white"/>
<path d="M393.663 370.635H373.618C369.086 370.635 365.398 366.946 365.398 362.411V305.855C365.398 301.32 369.086 297.629 373.618 297.629H393.663C398.196 297.629 401.883 301.32 401.883 305.855V362.411C401.883 366.946 398.196 370.635 393.663 370.635Z" fill="white"/>
<path d="M324.168 370.635H304.123C299.591 370.635 295.903 366.946 295.903 362.411V305.855C295.903 301.32 299.591 297.629 304.123 297.629H324.168C328.701 297.629 332.388 301.32 332.388 305.855V362.411C332.388 366.946 328.701 370.635 324.168 370.635Z" fill="white"/>
<path d="M468.34 304.148H298.941C295.907 304.148 294.05 301.998 293.555 299.869C293.06 297.738 293.779 294.989 296.502 293.65L382.109 251.561C383.652 250.803 385.491 250.81 387.03 251.583L470.821 293.67C473.195 294.864 474.334 297.306 473.722 299.892C473.108 302.477 470.996 304.148 468.34 304.148Z" fill="#CCCCCC"/>
<path d="M495.267 542.285H280.299V520.457C280.299 503.261 305.744 489.269 337.021 489.269H495.267V542.285Z" fill="#3F3D56"/>
<path d="M411.873 458.416H400.58V500.133H411.873V458.416Z" fill="#3F3D56"/>
<path d="M495.268 458.416H483.975V500.133H495.268V458.416Z" fill="#3F3D56"/>
<path d="M487.449 461.891H410.135V462.76H487.449V461.891Z" fill="#3F3D56"/>
<path d="M478.762 334.132H291.125V335.002H478.762V334.132Z" fill="#E6E6E6"/>
<path d="M487.449 475.798H410.135V476.667H487.449V475.798Z" fill="#3F3D56"/>
<path d="M487.449 482.75H410.135V483.62H487.449V482.75Z" fill="#3F3D56"/>
<path d="M427.512 218.339H339.769C338.403 218.339 337.249 217.5 336.828 216.199C336.407 214.9 336.849 213.541 337.955 212.74L382.296 180.591C383.394 179.797 384.863 179.802 385.951 180.611L429.352 212.759C430.444 213.567 430.874 214.924 430.449 216.215C430.023 217.505 428.87 218.339 427.512 218.339Z" fill="#CCCCCC"/>
<path d="M313.711 471.452H298.074V473.19H313.711V471.452Z" fill="#E6E6E6"/>
<path d="M741.877 542.719H517.755V256.888C517.755 219.69 548.004 189.426 585.184 189.426H674.447C711.628 189.426 741.877 219.69 741.877 256.888V542.719Z" fill="#E6E6E6"/>
<path d="M665.288 253.74H595.319C589.702 253.74 585.131 249.168 585.131 243.547V224.823C585.131 219.202 589.702 214.63 595.319 214.63H665.288C670.905 214.63 675.475 219.202 675.475 224.823V243.547C675.475 249.168 670.905 253.74 665.288 253.74Z" fill="white"/>
<path d="M631.987 335.002V195.075H631.119V335.002H631.987Z" fill="#E6E6E6"/>
<path d="M715.607 489.703H697.782C692.638 489.703 688.453 485.516 688.453 480.368V426.033C688.453 420.885 692.638 416.698 697.782 416.698H715.607C720.752 416.698 724.937 420.885 724.937 426.033V480.368C724.937 485.516 720.752 489.703 715.607 489.703Z" fill="white"/>
<path d="M599.203 527.944H550.105C544.96 527.944 540.775 523.756 540.775 518.609V422.556C540.775 417.409 544.96 413.221 550.105 413.221H599.203C604.348 413.221 608.533 417.409 608.533 422.556V518.609C608.533 523.756 604.348 527.944 599.203 527.944Z" fill="white"/>
<path d="M609.734 420.609H539.62C536.981 420.609 534.75 418.986 533.937 416.475C533.123 413.964 533.978 411.341 536.115 409.79L571.547 384.1C573.666 382.565 576.505 382.579 578.608 384.138L613.289 409.828C615.399 411.39 616.23 414.011 615.409 416.504C614.586 418.998 612.359 420.609 609.734 420.609Z" fill="#CCCCCC"/>
<path d="M722.91 421.478H690.526C687.888 421.478 685.657 419.855 684.842 417.344C684.028 414.833 684.883 412.208 687.02 410.659L703.386 398.794C705.505 397.257 708.344 397.272 710.446 398.831L726.465 410.697C728.575 412.258 729.407 414.879 728.584 417.372C727.762 419.866 725.535 421.478 722.91 421.478Z" fill="#CCCCCC"/>
<path d="M708.465 370.635H688.42C683.887 370.635 680.2 366.946 680.2 362.411V305.855C680.2 301.32 683.887 297.629 688.42 297.629H708.465C712.998 297.629 716.685 301.32 716.685 305.855V362.411C716.685 366.946 712.998 370.635 708.465 370.635Z" fill="white"/>
<path d="M639.838 370.635H619.794C615.261 370.635 611.573 366.946 611.573 362.411V305.855C611.573 301.32 615.261 297.629 619.794 297.629H639.838C644.371 297.629 648.059 301.32 648.059 305.855V362.411C648.059 366.946 644.371 370.635 639.838 370.635Z" fill="white"/>
<path d="M570.343 370.635H550.298C545.766 370.635 542.078 366.946 542.078 362.411V305.855C542.078 301.32 545.766 297.629 550.298 297.629H570.343C574.876 297.629 578.563 301.32 578.563 305.855V362.411C578.563 366.946 574.876 370.635 570.343 370.635Z" fill="white"/>
<path d="M714.515 304.148H545.116C542.082 304.148 540.225 301.998 539.73 299.869C539.235 297.738 539.954 294.989 542.677 293.65L628.285 251.561C629.827 250.803 631.666 250.81 633.205 251.583L716.996 293.67C719.37 294.864 720.509 297.306 719.897 299.892C719.283 302.477 717.171 304.148 714.515 304.148Z" fill="#CCCCCC"/>
<path d="M741.442 542.285H623.735V520.457C623.735 503.261 637.668 489.269 654.793 489.269H741.442V542.285Z" fill="#3F3D56"/>
<path d="M658.048 458.416H646.755V500.133H658.048V458.416Z" fill="#3F3D56"/>
<path d="M741.443 458.416H730.15V500.133H741.443V458.416Z" fill="#3F3D56"/>
<path d="M733.624 461.891H656.311V462.76H733.624V461.891Z" fill="#3F3D56"/>
<path d="M724.937 334.132H537.3V335.002H724.937V334.132Z" fill="#E6E6E6"/>
<path d="M733.624 475.798H656.311V476.667H733.624V475.798Z" fill="#3F3D56"/>
<path d="M733.624 482.75H656.311V483.62H733.624V482.75Z" fill="#3F3D56"/>
<path d="M673.687 218.339H585.945C584.578 218.339 583.424 217.5 583.003 216.199C582.582 214.9 583.024 213.541 584.13 212.74L628.471 180.591C629.569 179.797 631.038 179.802 632.126 180.611L675.527 212.759C676.619 213.567 677.049 214.924 676.624 216.215C676.199 217.505 675.046 218.339 673.687 218.339Z" fill="#CCCCCC"/>
<path d="M559.886 471.452H544.25V473.19H559.886V471.452Z" fill="#E6E6E6"/>
<path d="M733.599 539.968C733.527 540.574 733.507 541.138 733.548 541.692H764.002C764.279 541.138 764.515 540.564 764.72 539.968C768.443 529.265 762.32 511.449 770.084 485.034C775.849 465.433 786.609 450.102 791.625 442.959C797.789 434.175 804.775 426.067 812.868 413.116C814.622 410.315 816.427 407.277 818.294 403.963C818.919 402.854 826.13 389.996 825.474 389.595C825.166 389.411 823.258 392.007 822.612 392.879C816.909 400.596 813.596 403.973 808.847 409.525C805.964 412.891 802.559 417.047 797.779 423.461C785.522 439.891 779.398 448.101 777.265 454.248C776.7 455.89 773.695 464.777 768.033 475.798C765.14 481.422 763.694 484.234 762.904 484.008C760.668 483.362 763.684 460.077 773.162 436.802C774.782 432.841 775.993 430.306 778.29 425.513C782.024 417.693 802.815 374.233 818.099 348.218C820.017 344.944 821.853 341.958 823.545 339.341C823.874 338.848 824.192 338.366 824.499 337.904C826.633 334.723 828.52 332.209 830.09 330.587C830.92 329.725 833.033 327.283 837.27 322.378C838.952 320.428 840.183 318.981 841.014 317.924C841.137 317.77 841.25 317.616 841.342 317.482C842.347 316.169 842.634 315.533 842.398 315.194C842.06 314.712 840.757 314.989 839.331 315.492C839.178 315.543 839.013 315.604 838.86 315.666C837.311 316.241 835.741 316.99 835.218 317.246C830.418 319.555 825.73 323.691 821.391 328.607C819.781 330.423 818.232 332.342 816.735 334.313C811.914 340.675 807.708 347.602 804.528 353.298C800.631 360.317 798.292 365.479 798.292 365.479C787.409 389.524 775.336 417.026 774.7 416.79C774.003 416.534 787.389 382.299 791.286 363.704C792.589 357.474 792.825 353 791.112 352.138C791.05 352.107 790.989 352.077 790.917 352.056C790.65 351.964 790.404 351.974 790.271 351.984C790.271 351.984 788.681 351.779 787.009 352.138C784.927 352.59 782.557 358.388 780.249 366.526C774.249 387.502 768.546 423.974 768.546 423.974C762.843 460.456 754.186 489.981 752.134 489.652C750.996 489.468 752.627 480.303 751.108 465.023C750.042 454.309 748.831 454.638 744.954 435.262C738.8 404.527 735.722 389.164 735.722 389.082C735.753 388.436 735.835 387.132 735.64 385.778C735.435 384.31 734.912 382.771 733.671 381.899C731.784 380.565 728.748 381.139 727.517 381.899C726.532 382.514 726.029 383.643 725.917 385.265C725.24 395.465 739.887 425.041 744.954 465.023C747.477 484.942 748.862 495.81 744.954 510.177C741.087 524.421 734.348 533.493 733.599 539.968Z" fill="#3F3D56"/>
<path d="M692.129 282.868C700.544 281.336 710.995 286.972 711.618 293.13C712.13 298.2 705.902 302.829 706.489 303.393C707.038 303.92 710.897 298.357 715.721 298.262C723.01 298.117 731.758 310.467 729.055 317.76C726.885 323.613 717.588 325.528 717.772 325.97C717.946 326.386 725.029 321.843 732.132 322.891C742.303 324.391 752.041 337.284 749.57 345.468C746.809 354.614 728.936 357.445 729.055 357.783C729.18 358.14 747.043 348.99 753.673 354.704C758.119 358.537 757.481 367.471 754.698 373.176C748.89 385.084 730.768 389.304 721.875 383.438C714.96 378.878 719.624 372.176 712.644 357.783C704.072 340.108 689.165 333.975 689.052 320.839C689.042 319.644 689.009 315.798 691.103 314.681C694.448 312.899 700.905 319.314 701.361 318.786C701.853 318.216 693.209 311.968 688.026 301.34C686.395 297.998 682.686 290.392 685.975 285.947C687.649 283.684 690.445 283.175 692.129 282.868Z" fill="#4ECD5D"/>
<path d="M739.313 263.37C747.728 261.837 758.179 267.474 758.801 273.632C759.313 278.701 753.086 283.331 753.673 283.894C754.222 284.422 758.08 278.858 762.904 278.763C770.193 278.618 778.942 290.969 776.239 298.261C774.068 304.115 764.771 306.03 764.956 306.471C765.129 306.888 772.213 302.345 779.316 303.392C789.486 304.893 799.224 317.785 796.753 325.969C793.992 335.115 776.12 337.947 776.239 338.284C776.364 338.641 794.227 329.491 800.856 335.205C805.303 339.038 804.665 347.973 801.882 353.678C796.073 365.586 777.952 369.806 769.059 363.94C762.143 359.379 766.807 352.677 759.827 338.284C751.255 320.609 736.348 314.477 736.235 301.34C736.225 300.145 736.192 296.299 738.287 295.183C741.632 293.4 748.089 299.815 748.544 299.288C749.036 298.717 740.393 292.469 735.21 281.842C733.579 278.499 729.87 270.894 733.158 266.448C734.832 264.185 737.628 263.676 739.313 263.37Z" fill="#4ECD5D"/>
<path d="M796.448 240.583C788.472 243.673 782.499 253.939 785.182 259.517C787.392 264.109 795.118 264.802 794.912 265.589C794.719 266.325 788.525 263.598 784.362 266.036C778.069 269.721 777.054 284.825 783.166 289.632C788.071 293.49 797 290.266 797.072 290.739C797.142 291.185 788.73 291.011 783.219 295.615C775.329 302.207 773.751 318.29 780.13 323.98C787.258 330.337 803.979 323.415 804.054 323.765C804.132 324.135 784.124 325.663 781.452 334C779.66 339.592 784.867 346.878 790.217 350.289C801.387 357.41 819.044 351.542 823.567 341.894C827.084 334.392 819.61 331.113 818.051 315.191C816.136 295.639 825.649 282.622 818.889 271.359C818.274 270.335 816.295 267.036 813.926 267.179C810.142 267.407 807.984 276.251 807.32 276.038C806.602 275.809 810.714 265.966 809.587 254.194C809.233 250.491 808.427 242.067 803.303 239.994C800.694 238.938 798.044 239.966 796.448 240.583Z" fill="#4ECD5D"/>
<path d="M887.027 246.165C892.055 253.087 891.512 264.953 886.236 268.185C881.892 270.846 875.023 267.239 874.769 268.012C874.532 268.735 881.216 269.802 883.394 274.109C886.685 280.618 879.356 293.861 871.616 294.587C865.403 295.168 859.647 287.618 859.329 287.976C859.03 288.312 866.193 292.728 868.33 299.585C871.389 309.404 864.001 323.775 855.558 325.097C846.124 326.574 835.822 311.691 835.57 311.943C835.303 312.211 851.29 324.346 849.019 332.801C847.496 338.472 839.173 341.771 832.827 341.737C819.584 341.665 807.925 327.158 809.35 316.597C810.459 308.385 818.517 309.682 828.453 297.148C840.655 281.756 839.712 265.657 851.495 259.858C852.566 259.331 856.016 257.633 857.93 259.037C860.987 261.28 858.009 269.883 858.681 270.065C859.409 270.261 861.287 259.76 868.611 250.477C870.915 247.558 876.155 240.916 881.584 241.952C884.349 242.48 886.021 244.781 887.027 246.165Z" fill="#4ECD5D"/>
<path d="M879.847 322.106C884.875 329.027 884.332 340.894 879.056 344.125C874.712 346.786 867.843 343.179 867.589 343.953C867.352 344.675 874.036 345.743 876.214 350.05C879.505 356.558 872.176 369.801 864.436 370.527C858.223 371.109 852.467 363.558 852.149 363.916C851.849 364.253 859.013 368.669 861.15 375.526C864.208 385.345 856.821 399.715 848.378 401.038C838.944 402.515 828.642 387.631 828.39 387.884C828.123 388.151 844.11 400.287 841.839 408.742C840.316 414.413 831.993 417.712 825.647 417.677C812.404 417.605 800.744 403.098 802.17 392.538C803.279 384.326 811.337 385.623 821.272 373.088C833.474 357.696 832.532 341.598 844.314 335.799C845.386 335.271 848.836 333.574 850.75 334.978C853.806 337.221 850.829 345.824 851.501 346.005C852.229 346.201 854.107 335.7 861.431 326.418C863.734 323.498 868.975 316.856 874.404 317.893C877.168 318.42 878.84 320.721 879.847 322.106Z" fill="#4ECD5D"/>
<path d="M766.956 542.586C766.956 543.068 766.577 543.448 766.094 543.448H-27V541.724H766.094C766.577 541.724 766.956 542.114 766.956 542.586Z" fill="#E6E6E6"/>
</g>
</g>
</svg>
